<svg width="64" height="64" viewBox="0 0 64 64" fill="none" xmlns="http://www.w3.org/2000/svg">
  <defs>
    <linearGradient id="paint0_linear" x1="8" y1="8" x2="56" y2="56" gradientUnits="userSpaceOnUse">
      <stop stop-color="#9C27B0" />
      <stop offset="1" stop-color="#2196F3" />
    </linearGradient>
    <linearGradient id="paint1_linear" x1="18" y1="48" x2="46" y2="16" gradientUnits="userSpaceOnUse">
      <stop stop-color="#F48FB1" />
      <stop offset="1" stop-color="#90CAF9" />
    </linearGradient>
  </defs>
  <rect x="6" y="6" width="52" height="52" rx="14" fill="url(#paint0_linear)" />
  <path
    d="M20.5 43.5L29.6 20.4C30.2 18.9 31.7 18 33.3 18H40.5C42.2 18 43.4 19.7 42.8 21.3L39.9 29H45.5C47.3 29 48.4 30.9 47.6 32.5L40.9 46C40.2 47.5 38.7 48.5 37 48.5H30.3C28.6 48.5 27.4 46.8 28 45.2L31 37H25.3C23.5 37 22.4 35.1 23.2 33.5Z"
    fill="white"
    fill-opacity="0.95"
  />
  <path
    d="M20 43C22.2 43 24 41.2 24 39C24 36.8 22.2 35 20 35C17.8 35 16 36.8 16 39C16 41.2 17.8 43 20 43Z"
    fill="url(#paint1_linear)"
  />
</svg>
