<svg version="1.1" id="Layer_1" xmlns="http://www.w3.org/2000/svg" xmlns:xlink="http://www.w3.org/1999/xlink" x="0px" y="0px"
	 width="100%" viewBox="0 0 512 512" enable-background="new 0 0 512 512" xml:space="preserve">
<path fill="#000000" opacity="1.000000" stroke="none" 
	d="
M232.000000,513.000000 
	C154.685410,513.000000 77.870819,513.000000 1.028117,513.000000 
	C1.028117,342.393707 1.028117,171.787430 1.028117,1.090571 
	C171.564621,1.090571 342.129303,1.090571 512.846985,1.090571 
	C512.846985,171.666565 512.846985,342.333252 512.846985,513.000000 
	C419.454071,513.000000 325.977020,513.000000 232.000000,513.000000 
M332.504578,312.904144 
	C332.614349,312.613159 332.724121,312.322174 332.974182,311.576508 
	C332.974182,311.576508 333.043274,311.105713 333.578949,310.861298 
	C333.982239,310.234253 334.385529,309.607208 335.090454,308.396362 
	C335.422119,307.617615 335.753815,306.838867 336.683350,305.675049 
	C337.863007,303.580048 339.045776,301.486755 340.221771,299.389679 
	C345.050140,290.779480 349.993011,282.230652 354.658691,273.533142 
	C357.350494,268.515289 359.593262,263.256561 362.575623,257.861115 
	C362.990997,257.233673 363.406342,256.606201 364.121552,255.394180 
	C364.355072,254.606308 364.588593,253.818451 365.137177,252.391556 
	C371.302460,241.522278 377.543365,230.694977 383.608643,219.770187 
	C388.311127,211.300095 392.764374,202.692017 397.383606,194.175186 
	C401.518402,186.551590 405.700745,178.953400 409.913788,171.372696 
	C413.673187,164.608307 417.724854,157.996292 421.239532,151.108810 
	C424.736633,144.255798 429.565521,137.901978 428.196716,129.215973 
	C427.597992,125.416656 426.506592,123.967751 422.853699,123.979568 
	C407.524994,124.029175 392.194855,123.911819 376.868561,124.110168 
	C374.845825,124.136337 372.003571,125.051201 370.975464,126.543121 
	C366.648315,132.822189 362.865601,139.476425 358.316864,146.334152 
	C358.183960,147.204269 358.051025,148.074371 357.364990,149.015350 
	C357.204102,149.665680 357.043243,150.316010 356.253204,151.282852 
	C348.158142,166.494476 340.063080,181.706100 331.920074,196.918106 
	C331.920074,196.918106 331.935028,196.963684 331.311371,197.251236 
	C330.198120,199.477432 329.084869,201.703629 327.907410,203.928574 
	C327.907410,203.928574 327.917908,203.991943 327.311127,204.313171 
	C325.846924,207.853058 324.382690,211.392944 322.294769,215.241989 
	C315.527008,227.455078 308.759277,239.668152 301.900726,251.908585 
	C301.900726,251.908585 301.926819,251.999741 301.308441,252.262558 
	C300.505615,254.492737 299.702789,256.722931 298.318604,259.221161 
	C297.848999,260.133392 297.379395,261.045624 296.337830,262.292450 
	C295.858459,263.513153 295.379120,264.733856 294.299377,266.324554 
	C288.385437,277.189850 282.572968,288.112030 276.523499,298.901337 
	C272.171112,306.663910 267.502655,314.249237 262.317230,321.756531 
	C258.964355,316.071808 255.534119,310.431091 252.273468,304.693939 
	C243.441605,289.154175 234.681778,273.573486 226.039688,257.266541 
	C225.898697,256.632843 225.906326,255.912384 225.594574,255.378342 
	C220.243912,246.212463 214.625763,237.194351 209.534485,227.887711 
	C204.105713,217.964127 199.296997,207.702652 193.943756,197.735764 
	C192.061600,194.231522 189.368713,191.162735 187.002853,187.155197 
	C183.670715,180.321609 180.491119,173.408218 176.968170,166.674469 
	C172.470810,158.078278 167.871002,149.525070 162.980804,141.148636 
	C159.608566,135.372375 158.162506,128.093521 150.532104,124.340454 
	C141.208496,124.263657 131.884781,124.198303 122.561325,124.106247 
	C115.749008,124.038994 112.739944,129.679062 114.965294,135.010040 
	C117.817680,141.843124 120.915520,148.574295 123.733353,155.421066 
	C125.378426,159.418304 123.414368,162.607071 119.072311,162.919922 
	C116.118546,163.132751 113.064301,162.353989 110.164200,162.773544 
	C108.068665,163.076706 105.920692,164.341949 104.254517,165.728821 
	C103.423195,166.420776 102.959244,168.688751 103.460739,169.658813 
	C106.227928,175.011383 105.647552,180.105194 102.838493,185.684616 
	C105.163132,187.364746 107.597687,189.124313 110.950409,191.046967 
	C118.921883,191.042221 126.893349,191.037476 135.042496,191.843216 
	C134.746429,195.958939 135.597504,199.465591 140.107452,201.548538 
	C140.286377,201.825790 140.538101,201.994385 141.154831,202.627777 
	C141.766312,202.726517 142.377777,202.825256 143.909103,203.054703 
	C147.934967,203.004730 151.960846,202.954742 156.637421,203.285461 
	C162.814804,208.351913 158.818054,215.211411 160.051529,220.800430 
	C157.609924,222.624039 155.747711,224.945114 153.431564,225.562073 
	C147.596024,227.116547 145.622208,230.057968 146.076416,238.417450 
	C146.328201,243.051315 150.226242,246.871918 155.132446,246.959229 
	C162.116516,247.083527 169.106094,247.092636 176.089890,246.964203 
	C180.234390,246.887985 182.183777,248.430588 182.063232,252.809158 
	C181.906387,258.505554 180.416245,260.839447 175.953873,260.954376 
	C172.297043,261.048523 168.632690,260.867249 164.976868,260.978699 
	C160.275436,261.121948 158.005432,265.398865 159.603882,269.832306 
	C160.330795,271.848480 159.654358,274.362610 159.656723,276.650818 
	C159.658249,278.128235 159.203049,280.527710 159.876190,280.917053 
	C162.288147,282.312103 165.121475,283.910370 167.745117,283.827911 
	C174.797104,283.606415 180.159119,285.653564 183.097015,293.001709 
	C183.949142,294.474060 184.837814,295.926605 185.646988,297.422211 
	C188.890640,303.417511 191.987106,309.496643 195.384460,315.403046 
	C197.375977,318.865356 200.337723,321.129425 204.688522,321.010040 
	C208.518768,320.904907 212.358124,320.894989 216.186661,321.032379 
	C219.938721,321.166992 222.546417,322.525726 222.150101,327.037567 
	C221.903091,329.849823 222.619354,332.846924 221.890228,335.480621 
	C221.419754,337.179993 219.248672,339.378723 217.606262,339.597046 
	C213.127335,340.192322 210.759750,342.723846 213.003250,346.658844 
	C216.216217,352.294189 220.315552,357.424133 224.620911,363.135681 
	C225.746109,364.339661 226.738876,365.714081 228.023743,366.712616 
	C230.792877,368.864563 233.549881,372.229340 236.602249,372.581604 
	C243.980637,373.433136 251.525574,372.841797 259.931274,372.961884 
	C265.398926,373.043518 271.058075,372.255493 276.289978,373.407654 
	C284.436462,375.201721 290.966187,372.964874 297.632050,367.834930 
	C298.113464,367.234070 298.594910,366.633209 299.676361,365.738678 
	C301.135345,364.180420 302.594330,362.622131 304.590057,360.845490 
	C305.004395,360.235474 305.418701,359.625458 305.974396,358.572479 
	C305.974396,358.572479 306.042633,358.112549 306.757965,357.977295 
	C311.155304,350.900299 315.758484,343.940643 319.882019,336.707581 
	C322.943085,331.338196 325.381622,325.613953 328.686371,319.764465 
	C329.397705,318.500824 330.109039,317.237213 330.968048,315.555420 
	C330.968048,315.555420 331.039490,315.117706 331.597839,314.805298 
	C331.755035,314.193420 331.912262,313.581512 332.001953,312.995056 
	C332.001953,312.995056 332.027283,313.062592 332.504578,312.904144 
M149.008240,280.252258 
	C148.670059,279.838562 148.331879,279.424866 147.979782,278.207123 
	C145.757233,274.578156 149.183304,268.944855 145.471924,267.214111 
	C140.122696,267.214111 136.442825,267.214111 131.809601,267.214111 
	C129.830872,272.224701 130.733383,277.987366 132.585388,284.303986 
	C146.012314,280.983887 152.123886,290.965759 158.437943,298.976349 
	C160.551315,301.657562 160.493851,308.045807 157.005219,312.561066 
	C163.397690,319.255829 171.535843,314.318909 180.093231,316.776459 
	C180.093231,309.437622 179.902039,303.082275 180.170624,296.746490 
	C180.313583,293.374329 179.329590,292.420929 175.934967,292.511871 
	C170.718170,292.651642 165.483353,292.119202 160.194717,291.178101 
	C158.910858,290.063782 157.626984,288.949463 156.312927,287.688599 
	C156.312927,287.688599 156.166000,287.660339 156.168381,286.983917 
	C155.210571,286.239166 154.252747,285.494446 153.072479,284.293091 
	C152.800644,284.099457 152.528793,283.905853 152.189728,283.055206 
	C151.238358,282.313690 150.286987,281.572174 149.244644,280.711731 
	C149.244644,280.711731 149.125641,280.802582 149.008240,280.252258 
M126.694031,230.173950 
	C127.164337,232.352951 127.666039,234.525818 128.094910,236.712936 
	C128.431442,238.429077 128.350449,240.304428 129.024170,241.862991 
	C131.284271,247.091415 136.036575,244.577850 139.773331,244.903442 
	C142.670990,245.155930 144.244720,243.575943 144.047638,240.350357 
	C143.865967,237.377045 144.353149,234.354370 144.073486,231.398117 
	C143.834625,228.873032 143.563416,226.112625 139.343872,227.669983 
	C136.174240,228.839859 133.073914,228.117249 130.438385,225.193298 
	C125.992821,220.261185 121.271790,215.538086 116.313950,211.123108 
	C113.728630,208.820862 112.463997,206.520401 112.986542,203.123779 
	C114.273163,194.760544 112.429230,194.745819 104.954987,194.793793 
	C97.562943,194.841248 97.022499,195.343536 97.098106,202.484253 
	C97.108665,203.481659 97.098961,204.479248 97.100739,205.476761 
	C97.113655,212.724915 98.270531,214.271973 105.376350,213.764786 
	C110.572411,213.393936 113.756050,215.716583 116.735916,219.309357 
	C119.718361,222.905243 122.872208,226.358994 126.694031,230.173950 
M184.772552,338.811981 
	C188.369446,335.989136 187.972076,331.999176 188.024323,328.073212 
	C188.077606,324.067596 185.752747,321.708252 182.321411,321.275482 
	C178.106506,320.743896 172.607742,319.699127 170.647369,324.602997 
	C169.327713,327.904114 170.352295,332.345795 171.068558,336.137360 
	C171.292587,337.323242 173.841919,338.606445 175.482437,338.867523 
	C178.222214,339.303589 181.087250,338.952789 184.772552,338.811981 
M141.232040,219.008987 
	C143.431091,221.350510 151.410492,223.278152 154.282547,221.729523 
	C155.349045,221.154434 156.171631,219.272537 156.267532,217.926880 
	C156.477768,214.976700 155.791718,211.945572 156.137894,209.026505 
	C156.568481,205.395538 154.846207,204.257416 151.769058,204.120331 
	C149.777390,204.031601 147.406677,203.429962 145.870819,204.271622 
	C143.638046,205.495224 141.097366,207.509628 140.351303,209.742554 
	C139.468399,212.385010 140.354492,215.618530 141.232040,219.008987 
M107.021645,249.889709 
	C107.021645,253.303864 107.021645,256.718018 107.021645,261.215302 
	C112.062363,260.985168 118.005379,260.713837 123.949463,260.442474 
	C123.949463,256.621155 123.615372,254.070511 124.024323,251.645157 
	C124.713371,247.558624 121.761902,246.170166 119.124428,245.424072 
	C116.336533,244.635422 113.077209,244.634949 110.237778,245.260864 
	C108.715492,245.596436 107.643051,247.972672 107.021645,249.889709 
M84.998802,172.881195 
	C85.000946,175.370529 84.896805,177.865677 85.033028,180.347656 
	C85.191528,183.235550 85.598816,185.470032 89.775429,184.307709 
	C92.638718,183.510880 95.903030,184.155014 99.923424,184.155014 
	C102.104347,180.269684 100.868782,175.200394 100.389488,170.298203 
	C100.322006,169.607986 98.182289,168.685394 96.966484,168.628860 
	C94.022560,168.491974 90.953621,169.341171 88.128357,168.794342 
	C84.745834,168.139664 85.050995,169.978043 84.998802,172.881195 
z"/>
<path fill="#704EA2" opacity="1.000000" stroke="none" 
	d="
M358.883636,145.993347 
	C362.865601,139.476425 366.648315,132.822189 370.975464,126.543121 
	C372.003571,125.051201 374.845825,124.136337 376.868561,124.110168 
	C392.194855,123.911819 407.524994,124.029175 422.853699,123.979568 
	C426.506592,123.967751 427.597992,125.416656 428.196716,129.215973 
	C429.565521,137.901978 424.736633,144.255798 421.239532,151.108810 
	C417.724854,157.996292 413.673187,164.608307 409.913788,171.372696 
	C405.700745,178.953400 401.518402,186.551590 397.383606,194.175186 
	C392.764374,202.692017 388.311127,211.300095 383.608643,219.770187 
	C377.543365,230.694977 371.302460,241.522278 364.679565,252.552139 
	C362.838348,249.285751 360.243103,245.852509 360.260773,242.432785 
	C360.417145,212.221024 361.087433,182.012192 361.403748,151.800385 
	C361.423920,149.873703 359.762665,147.929428 358.883636,145.993347 
z"/>
<path fill="#8E3791" opacity="1.000000" stroke="none" 
	d="
M151.151031,124.946098 
	C158.162506,128.093521 159.608566,135.372375 162.980804,141.148636 
	C167.871002,149.525070 172.470810,158.078278 176.968170,166.674469 
	C180.491119,173.408218 183.670715,180.321609 186.911697,187.884613 
	C187.211304,195.062775 187.905701,201.509949 187.939209,207.960541 
	C188.070602,233.250671 187.996292,258.541870 187.986847,283.832672 
	C187.986282,285.328156 187.973953,286.833405 187.810486,288.316864 
	C187.514587,291.002472 186.225113,292.667145 183.228790,292.315094 
	C180.159119,285.653564 174.797104,283.606415 167.745117,283.827911 
	C165.121475,283.910370 162.288147,282.312103 159.876190,280.917053 
	C159.203049,280.527710 159.658249,278.128235 159.656723,276.650818 
	C159.654358,274.362610 160.330795,271.848480 159.603882,269.832306 
	C158.005432,265.398865 160.275436,261.121948 164.976868,260.978699 
	C168.632690,260.867249 172.297043,261.048523 175.953873,260.954376 
	C180.416245,260.839447 181.906387,258.505554 182.063232,252.809158 
	C182.183777,248.430588 180.234390,246.887985 176.089890,246.964203 
	C169.106094,247.092636 162.116516,247.083527 155.132446,246.959229 
	C150.226242,246.871918 146.328201,243.051315 146.076416,238.417450 
	C145.622208,230.057968 147.596024,227.116547 153.431564,225.562073 
	C155.747711,224.945114 157.609924,222.624039 160.051529,220.800430 
	C158.818054,215.211411 162.814804,208.351913 156.060272,202.825485 
	C151.254181,202.246872 147.025223,202.128235 142.474701,202.015823 
	C141.722931,202.032806 141.292770,202.043564 140.862595,202.054321 
	C140.538101,201.994385 140.286377,201.825790 140.040192,200.852417 
	C139.981812,178.838104 139.991577,157.519897 139.999207,136.201706 
	C140.003159,125.144928 140.001465,125.144928 151.151031,124.946098 
z"/>
<path fill="#883C95" opacity="1.000000" stroke="none" 
	d="
M183.162903,292.658386 
	C186.225113,292.667145 187.514587,291.002472 187.810486,288.316864 
	C187.973953,286.833405 187.986282,285.328156 187.986847,283.832672 
	C187.996292,258.541870 188.070602,233.250671 187.939209,207.960541 
	C187.905701,201.509949 187.211304,195.062775 186.933273,188.254578 
	C189.368713,191.162735 192.061600,194.231522 193.943756,197.735764 
	C199.296997,207.702652 204.105713,217.964127 209.534485,227.887711 
	C214.625763,237.194351 220.243912,246.212463 225.594574,255.378342 
	C225.906326,255.912384 225.898697,256.632843 225.649353,257.786591 
	C224.174591,261.252625 222.146729,264.201447 222.155457,267.144165 
	C222.223541,290.091919 222.626816,313.039490 223.050323,335.984863 
	C223.215179,344.916229 223.698288,353.841736 224.036423,362.769897 
	C220.315552,357.424133 216.216217,352.294189 213.003250,346.658844 
	C210.759750,342.723846 213.127335,340.192322 217.606262,339.597046 
	C219.248672,339.378723 221.419754,337.179993 221.890228,335.480621 
	C222.619354,332.846924 221.903091,329.849823 222.150101,327.037567 
	C222.546417,322.525726 219.938721,321.166992 216.186661,321.032379 
	C212.358124,320.894989 208.518768,320.904907 204.688522,321.010040 
	C200.337723,321.129425 197.375977,318.865356 195.384460,315.403046 
	C191.987106,309.496643 188.890640,303.417511 185.646988,297.422211 
	C184.837814,295.926605 183.949142,294.474060 183.162903,292.658386 
z"/>
<path fill="#78489D" opacity="1.000000" stroke="none" 
	d="
M301.991516,251.881241 
	C308.759277,239.668152 315.527008,227.455078 322.803192,214.811768 
	C324.847046,210.918335 326.382477,207.455139 327.917908,203.991943 
	C327.917908,203.991943 327.907410,203.928574 328.200806,203.719391 
	C329.641144,201.328049 330.788086,199.145859 331.935028,196.963684 
	C331.935028,196.963684 331.920074,196.918106 332.230164,197.061920 
	C332.878906,199.276230 333.694489,201.402298 333.460968,203.406128 
	C332.906494,208.164001 331.166199,212.857162 331.119659,217.588425 
	C330.874023,242.560043 331.065155,267.535645 330.955994,292.509186 
	C330.932861,297.796692 332.212219,302.360474 336.085480,306.060120 
	C335.753815,306.838867 335.422119,307.617615 334.711853,308.852417 
	C333.903259,309.907532 333.473267,310.506622 333.043274,311.105713 
	C333.043274,311.105713 332.974182,311.576508 332.763794,311.970856 
	C332.370697,312.592133 332.195343,312.824585 332.027283,313.062592 
	C332.027283,313.062592 332.001953,312.995056 331.881531,313.239105 
	C331.520569,314.028015 331.280029,314.572845 331.039490,315.117706 
	C331.039490,315.117706 330.968048,315.555420 330.624695,315.932495 
	C329.553406,317.555634 328.825439,318.801697 328.097473,320.047760 
	C325.381622,325.613953 322.943085,331.338196 319.882019,336.707581 
	C315.758484,343.940643 311.155304,350.900299 306.292664,357.701263 
	C300.552734,351.597260 300.873322,344.487518 300.950104,337.302704 
	C301.113495,322.015564 300.968872,306.725403 301.010590,291.436646 
	C301.039978,280.672668 300.112183,269.838684 304.416962,259.462372 
	C305.525269,256.790863 305.845184,253.423874 301.991516,251.881241 
z"/>
<path fill="#7C459B" opacity="1.000000" stroke="none" 
	d="
M301.946106,251.894913 
	C305.845184,253.423874 305.525269,256.790863 304.416962,259.462372 
	C300.112183,269.838684 301.039978,280.672668 301.010590,291.436646 
	C300.968872,306.725403 301.113495,322.015564 300.950104,337.302704 
	C300.873322,344.487518 300.552734,351.597260 305.934998,357.768890 
	C306.042633,358.112549 305.974396,358.572479 305.672333,358.947296 
	C304.931274,359.902679 304.492310,360.483276 304.053314,361.063843 
	C302.594330,362.622131 301.135345,364.180420 299.134247,365.921448 
	C298.093201,366.755524 297.594269,367.406830 297.095337,368.058105 
	C290.966187,372.964874 284.436462,375.201721 276.289978,373.407654 
	C271.058075,372.255493 265.398926,373.043518 259.550781,372.535126 
	C259.203278,370.303650 259.171722,368.495087 259.279480,366.694855 
	C260.174622,351.740265 255.484543,336.322845 262.975220,321.913635 
	C267.502655,314.249237 272.171112,306.663910 276.523499,298.901337 
	C282.572968,288.112030 288.385437,277.189850 294.848999,265.922974 
	C295.902313,264.333527 296.406067,263.145721 296.909790,261.957886 
	C297.379395,261.045624 297.848999,260.133392 298.838898,258.834351 
	C300.215088,256.298248 301.070953,254.149002 301.926819,251.999741 
	C301.926819,251.999741 301.900726,251.908585 301.946106,251.894913 
z"/>
<path fill="#744BA0" opacity="1.000000" stroke="none" 
	d="
M336.384399,305.867584 
	C332.212219,302.360474 330.932861,297.796692 330.955994,292.509186 
	C331.065155,267.535645 330.874023,242.560043 331.119659,217.588425 
	C331.166199,212.857162 332.906494,208.164001 333.460968,203.406128 
	C333.694489,201.402298 332.878906,199.276230 332.254150,197.061722 
	C340.063080,181.706100 348.158142,166.494476 356.726410,150.886963 
	C357.439117,149.975555 357.678619,149.460022 357.918121,148.944489 
	C358.051025,148.074371 358.183960,147.204269 358.600250,146.163757 
	C359.762665,147.929428 361.423920,149.873703 361.403748,151.800385 
	C361.087433,182.012192 360.417145,212.221024 360.260773,242.432785 
	C360.243103,245.852509 362.838348,249.285751 364.522034,252.871658 
	C364.588593,253.818451 364.355072,254.606308 363.741882,255.851898 
	C362.920837,256.908478 362.479492,257.507355 362.038147,258.106262 
	C359.593262,263.256561 357.350494,268.515289 354.658691,273.533142 
	C349.993011,282.230652 345.050140,290.779480 340.221771,299.389679 
	C339.045776,301.486755 337.863007,303.580048 336.384399,305.867584 
z"/>
<path fill="#834197" opacity="1.000000" stroke="none" 
	d="
M262.646240,321.835083 
	C255.484543,336.322845 260.174622,351.740265 259.279480,366.694855 
	C259.171722,368.495087 259.203278,370.303650 259.086792,372.470276 
	C251.525574,372.841797 243.980637,373.433136 236.602249,372.581604 
	C233.549881,372.229340 230.792877,368.864563 228.023743,366.712616 
	C226.738876,365.714081 225.746109,364.339661 224.328674,362.952789 
	C223.698288,353.841736 223.215179,344.916229 223.050323,335.984863 
	C222.626816,313.039490 222.223541,290.091919 222.155457,267.144165 
	C222.146729,264.201447 224.174591,261.252625 225.576202,258.157837 
	C234.681778,273.573486 243.441605,289.154175 252.273468,304.693939 
	C255.534119,310.431091 258.964355,316.071808 262.646240,321.835083 
z"/>
<path fill="#92348F" opacity="1.000000" stroke="none" 
	d="
M150.841568,124.643280 
	C140.001465,125.144928 140.003159,125.144928 139.999207,136.201706 
	C139.991577,157.519897 139.981812,178.838104 139.967041,200.631775 
	C135.597504,199.465591 134.746429,195.958939 134.728455,191.149536 
	C127.427048,190.008743 120.443062,189.474808 113.448891,189.203278 
	C112.333443,189.159958 111.172279,190.294098 110.032249,190.883881 
	C107.597687,189.124313 105.163132,187.364746 102.838493,185.684616 
	C105.647552,180.105194 106.227928,175.011383 103.460739,169.658813 
	C102.959244,168.688751 103.423195,166.420776 104.254517,165.728821 
	C105.920692,164.341949 108.068665,163.076706 110.164200,162.773544 
	C113.064301,162.353989 116.118546,163.132751 119.072311,162.919922 
	C123.414368,162.607071 125.378426,159.418304 123.733353,155.421066 
	C120.915520,148.574295 117.817680,141.843124 114.965294,135.010040 
	C112.739944,129.679062 115.749008,124.038994 122.561325,124.106247 
	C131.884781,124.198303 141.208496,124.263657 150.841568,124.643280 
z"/>
<path fill="#8E3791" opacity="1.000000" stroke="none" 
	d="
M160.256180,291.871948 
	C165.483353,292.119202 170.718170,292.651642 175.934967,292.511871 
	C179.329590,292.420929 180.313583,293.374329 180.170624,296.746490 
	C179.902039,303.082275 180.093231,309.437622 180.093231,316.776459 
	C171.535843,314.318909 163.397690,319.255829 157.005219,312.561066 
	C160.493851,308.045807 160.551315,301.657562 158.437943,298.976349 
	C152.123886,290.965759 146.012314,280.983887 132.585388,284.303986 
	C130.733383,277.987366 129.830872,272.224701 131.809601,267.214111 
	C136.442825,267.214111 140.122696,267.214111 145.471924,267.214111 
	C149.183304,268.944855 145.757233,274.578156 147.950073,278.800262 
	C148.322113,279.863129 148.723877,280.332855 149.125641,280.802582 
	C149.125641,280.802582 149.244644,280.711731 149.364838,281.087341 
	C150.408997,282.212708 151.332977,282.962463 152.256943,283.712250 
	C152.528793,283.905853 152.800644,284.099457 153.243622,284.830872 
	C154.331833,286.132568 155.248917,286.896454 156.166000,287.660339 
	C156.166000,287.660339 156.312927,287.688599 156.385254,288.096680 
	C157.723785,289.627136 158.989990,290.749542 160.256180,291.871948 
z"/>
<path fill="#92348F" opacity="1.000000" stroke="none" 
	d="
M126.322479,230.024506 
	C122.872208,226.358994 119.718361,222.905243 116.735916,219.309357 
	C113.756050,215.716583 110.572411,213.393936 105.376350,213.764786 
	C98.270531,214.271973 97.113655,212.724915 97.100739,205.476761 
	C97.098961,204.479248 97.108665,203.481659 97.098106,202.484253 
	C97.022499,195.343536 97.562943,194.841248 104.954987,194.793793 
	C112.429230,194.745819 114.273163,194.760544 112.986542,203.123779 
	C112.463997,206.520401 113.728630,208.820862 116.313950,211.123108 
	C121.271790,215.538086 125.992821,220.261185 130.438385,225.193298 
	C133.073914,228.117249 136.174240,228.839859 139.343872,227.669983 
	C143.563416,226.112625 143.834625,228.873032 144.073486,231.398117 
	C144.353149,234.354370 143.865967,237.377045 144.047638,240.350357 
	C144.244720,243.575943 142.670990,245.155930 139.773331,244.903442 
	C136.036575,244.577850 131.284271,247.091415 129.024170,241.862991 
	C128.350449,240.304428 128.431442,238.429077 128.094910,236.712936 
	C127.666039,234.525818 127.164337,232.352951 126.322479,230.024506 
z"/>
<path fill="#8E3791" opacity="1.000000" stroke="none" 
	d="
M184.336060,338.872589 
	C181.087250,338.952789 178.222214,339.303589 175.482437,338.867523 
	C173.841919,338.606445 171.292587,337.323242 171.068558,336.137360 
	C170.352295,332.345795 169.327713,327.904114 170.647369,324.602997 
	C172.607742,319.699127 178.106506,320.743896 182.321411,321.275482 
	C185.752747,321.708252 188.077606,324.067596 188.024323,328.073212 
	C187.972076,331.999176 188.369446,335.989136 184.336060,338.872589 
z"/>
<path fill="#92348F" opacity="1.000000" stroke="none" 
	d="
M140.852921,218.802414 
	C140.354492,215.618530 139.468399,212.385010 140.351303,209.742554 
	C141.097366,207.509628 143.638046,205.495224 145.870819,204.271622 
	C147.406677,203.429962 149.777390,204.031601 151.769058,204.120331 
	C154.846207,204.257416 156.568481,205.395538 156.137894,209.026505 
	C155.791718,211.945572 156.477768,214.976700 156.267532,217.926880 
	C156.171631,219.272537 155.349045,221.154434 154.282547,221.729523 
	C151.410492,223.278152 143.431091,221.350510 140.852921,218.802414 
z"/>
<path fill="#92348F" opacity="1.000000" stroke="none" 
	d="
M106.694626,249.658875 
	C107.643051,247.972672 108.715492,245.596436 110.237778,245.260864 
	C113.077209,244.634949 116.336533,244.635422 119.124428,245.424072 
	C121.761902,246.170166 124.713371,247.558624 124.024323,251.645157 
	C123.615372,254.070511 123.949463,256.621155 123.949463,260.442474 
	C118.005379,260.713837 112.062363,260.985168 107.021645,261.215302 
	C107.021645,256.718018 107.021645,253.303864 106.694626,249.658875 
z"/>
<path fill="#92348F" opacity="1.000000" stroke="none" 
	d="
M84.999924,172.437881 
	C85.050995,169.978043 84.745834,168.139664 88.128357,168.794342 
	C90.953621,169.341171 94.022560,168.491974 96.966484,168.628860 
	C98.182289,168.685394 100.322006,169.607986 100.389488,170.298203 
	C100.868782,175.200394 102.104347,180.269684 99.923424,184.155014 
	C95.903030,184.155014 92.638718,183.510880 89.775429,184.307709 
	C85.598816,185.470032 85.191528,183.235550 85.033028,180.347656 
	C84.896805,177.865677 85.000946,175.370529 84.999924,172.437881 
z"/>
<path fill="#883C95" opacity="1.000000" stroke="none" 
	d="
M110.491333,190.965424 
	C111.172279,190.294098 112.333443,189.159958 113.448891,189.203278 
	C120.443062,189.474808 127.427048,190.008743 134.639618,190.744293 
	C126.893349,191.037476 118.921883,191.042221 110.491333,190.965424 
z"/>
<path fill="#883C95" opacity="1.000000" stroke="none" 
	d="
M142.796280,202.009583 
	C147.025223,202.128235 151.254181,202.246872 155.734924,202.635132 
	C151.960846,202.954742 147.934967,203.004730 143.405121,202.759888 
	C142.901138,202.465057 142.796280,202.009583 142.796280,202.009583 
z"/>
<path fill="#744BA0" opacity="1.000000" stroke="none" 
	d="
M327.614502,204.152557 
	C326.382477,207.455139 324.847046,210.918335 323.115051,214.657196 
	C324.382690,211.392944 325.846924,207.853058 327.614502,204.152557 
z"/>
<path fill="#744BA0" opacity="1.000000" stroke="none" 
	d="
M331.623199,197.107452 
	C330.788086,199.145859 329.641144,201.328049 328.232910,203.720016 
	C329.084869,201.703629 330.198120,199.477432 331.623199,197.107452 
z"/>
<path fill="#78489D" opacity="1.000000" stroke="none" 
	d="
M301.617615,252.131149 
	C301.070953,254.149002 300.215088,256.298248 299.129578,258.700317 
	C299.702789,256.722931 300.505615,254.492737 301.617615,252.131149 
z"/>
<path fill="#92348F" opacity="1.000000" stroke="none" 
	d="
M160.225449,291.525024 
	C158.989990,290.749542 157.723785,289.627136 156.400360,288.169922 
	C157.626984,288.949463 158.910858,290.063782 160.225449,291.525024 
z"/>
<path fill="#744BA0" opacity="1.000000" stroke="none" 
	d="
M328.391937,319.906128 
	C328.825439,318.801697 329.553406,317.555634 330.550873,316.141571 
	C330.109039,317.237213 329.397705,318.500824 328.391937,319.906128 
z"/>
<path fill="#92348F" opacity="1.000000" stroke="none" 
	d="
M156.167191,287.322144 
	C155.248917,286.896454 154.331833,286.132568 153.354843,285.059174 
	C154.252747,285.494446 155.210571,286.239166 156.167191,287.322144 
z"/>
<path fill="#92348F" opacity="1.000000" stroke="none" 
	d="
M152.223328,283.383728 
	C151.332977,282.962463 150.408997,282.212708 149.410324,281.146790 
	C150.286987,281.572174 151.238358,282.313690 152.223328,283.383728 
z"/>
<path fill="#78489D" opacity="1.000000" stroke="none" 
	d="
M296.623840,262.125183 
	C296.406067,263.145721 295.902313,264.333527 295.149170,265.737976 
	C295.379120,264.733856 295.858459,263.513153 296.623840,262.125183 
z"/>
<path fill="#78489D" opacity="1.000000" stroke="none" 
	d="
M297.363708,367.946533 
	C297.594269,367.406830 298.093201,366.755524 298.834229,366.068298 
	C298.594910,366.633209 298.113464,367.234070 297.363708,367.946533 
z"/>
<path fill="#78489D" opacity="1.000000" stroke="none" 
	d="
M304.321686,360.954651 
	C304.492310,360.483276 304.931274,359.902679 305.601624,359.168762 
	C305.418701,359.625458 305.004395,360.235474 304.321686,360.954651 
z"/>
<path fill="#704EA2" opacity="1.000000" stroke="none" 
	d="
M357.641541,148.979919 
	C357.678619,149.460022 357.439117,149.975555 357.041016,150.728699 
	C357.043243,150.316010 357.204102,149.665680 357.641541,148.979919 
z"/>
<path fill="#744BA0" opacity="1.000000" stroke="none" 
	d="
M333.311096,310.983521 
	C333.473267,310.506622 333.903259,309.907532 334.561035,309.144287 
	C334.385529,309.607208 333.982239,310.234253 333.311096,310.983521 
z"/>
<path fill="#92348F" opacity="1.000000" stroke="none" 
	d="
M149.066940,280.527405 
	C148.723877,280.332855 148.322113,279.863129 147.957031,279.202271 
	C148.331879,279.424866 148.670059,279.838562 149.066940,280.527405 
z"/>
<path fill="#704EA2" opacity="1.000000" stroke="none" 
	d="
M362.306885,257.983704 
	C362.479492,257.507355 362.920837,256.908478 363.591919,256.144165 
	C363.406342,256.606201 362.990997,257.233673 362.306885,257.983704 
z"/>
<path fill="#744BA0" opacity="1.000000" stroke="none" 
	d="
M331.318665,314.961487 
	C331.280029,314.572845 331.520569,314.028015 331.915283,313.226379 
	C331.912262,313.581512 331.755035,314.193420 331.318665,314.961487 
z"/>
<path fill="#92348F" opacity="1.000000" stroke="none" 
	d="
M142.474701,202.015808 
	C142.796280,202.009583 142.901138,202.465057 142.945190,202.694519 
	C142.377777,202.825256 141.766312,202.726517 141.008713,202.341049 
	C141.292770,202.043564 141.722931,202.032806 142.474701,202.015808 
z"/>
<path fill="#744BA0" opacity="1.000000" stroke="none" 
	d="
M332.265930,312.983368 
	C332.195343,312.824585 332.370697,312.592133 332.693604,312.198181 
	C332.724121,312.322174 332.614349,312.613159 332.265930,312.983368 
z"/>
</svg>